<svg xmlns="http://www.w3.org/2000/svg" viewBox="0 0 37.157 37.387"><g id="Calque_2" data-name="Calque 2"><g id="Design"><path d="M15.362,37.3a18.809,18.809,0,1,1,6.7.031" fill="#fff"/><path d="M21.378,30.715c0-2.121,0-4.243-.006-6.365,0-.265.071-.33.33-.327,1.244.014,2.488,0,3.732.01.191,0,.275-.041.3-.25q.3-2.378.638-4.751c.034-.245-.035-.3-.27-.3-1.481.01-2.962.006-4.443,0-.127,0-.29.054-.284-.181a33.84,33.84,0,0,1,.07-3.489,3.79,3.79,0,0,1,.289-1.083,2.321,2.321,0,0,1,2.052-1.474c.836-.06,1.676-.07,2.514-.082.223,0,.3-.042.3-.286q-.018-1.938,0-3.878c0-.21-.056-.284-.269-.32a15.569,15.569,0,0,0-5-.24,6.031,6.031,0,0,0-5.4,4.907,10.207,10.207,0,0,0-.238,2.439c0,1.086,0,2.171,0,3.257,0,.492.067.429-.416.43-1.333,0-2.666.006-4,0-.223,0-.282.06-.28.281.009,1.569.011,3.138,0,4.707,0,.261.089.3.322.3,1.353-.01,2.706,0,4.059-.01.244,0,.315.061.314.31q-.012,6.351,0,12.7c0,.277-.061.319-.332.269a18.809,18.809,0,1,1,6.7.031c-.685.12-.685.12-.685-.572Z" fill="#0180fe"/></g></g></svg>